<?xml version="1.0" standalone="no"?>
<!DOCTYPE svg PUBLIC "-//W3C//DTD SVG 20010904//EN"
 "http://www.w3.org/TR/2001/REC-SVG-20010904/DTD/svg10.dtd">
<svg version="1.0" xmlns="http://www.w3.org/2000/svg"
 width="800.000000pt" height="800.000000pt" viewBox="0 0 800.000000 800.000000"
 preserveAspectRatio="xMidYMid meet">

<g transform="translate(0.000000,800.000000) scale(0.100000,-0.100000)"
fill="#000000" stroke="none">
<path d="M3505 7913 c-19 -10 -68 -19 -135 -23 -71 -4 -113 -11 -130 -22 -14
-9 -58 -20 -98 -24 -40 -4 -90 -15 -110 -25 -21 -11 -57 -19 -87 -19 -38 0
-55 -5 -68 -20 -13 -15 -29 -20 -69 -20 -42 0 -56 -4 -66 -20 -9 -15 -23 -20
-56 -20 -25 0 -51 -6 -58 -13 -23 -23 -55 -37 -86 -37 -16 0 -37 -9 -47 -20
-11 -12 -31 -20 -49 -20 -19 0 -38 -8 -48 -20 -10 -11 -30 -23 -45 -26 -15 -4
-38 -15 -50 -24 -13 -10 -38 -21 -57 -24 -19 -4 -39 -13 -46 -21 -7 -8 -18
-15 -24 -15 -7 0 -27 -11 -46 -25 -19 -14 -41 -25 -50 -25 -9 0 -25 -9 -35
-20 -10 -11 -28 -20 -41 -20 -13 0 -27 -8 -32 -17 -9 -16 -38 -34 -109 -68
-18 -8 -33 -20 -33 -25 0 -6 -8 -13 -17 -17 -26 -9 -113 -65 -113 -73 0 -8
-78 -60 -89 -60 -5 0 -21 -12 -38 -27 -58 -55 -122 -108 -158 -133 -20 -14
-66 -53 -101 -87 -35 -35 -68 -63 -74 -63 -5 0 -10 -5 -10 -11 0 -5 -51 -62
-112 -124 -126 -128 -135 -137 -152 -168 -10 -20 -55 -71 -115 -133 -12 -12
-21 -25 -21 -30 0 -13 -53 -87 -72 -102 -10 -7 -18 -19 -18 -27 0 -8 -8 -19
-19 -24 -10 -6 -22 -23 -26 -38 -3 -15 -15 -33 -26 -41 -10 -7 -19 -21 -19
-31 0 -10 -9 -26 -20 -36 -11 -10 -20 -24 -20 -31 0 -7 -9 -21 -19 -31 -11
-10 -23 -30 -26 -46 -4 -15 -16 -32 -26 -38 -11 -5 -19 -18 -19 -28 0 -10 -9
-30 -20 -44 -11 -14 -20 -32 -20 -41 0 -9 -9 -25 -19 -35 -10 -10 -22 -34 -26
-52 -4 -19 -16 -45 -26 -58 -11 -13 -19 -30 -19 -38 0 -8 -8 -27 -19 -41 -10
-15 -21 -44 -25 -65 -4 -21 -14 -41 -22 -44 -7 -3 -14 -16 -14 -28 0 -31 -16
-73 -35 -91 -8 -9 -15 -32 -15 -52 0 -20 -8 -51 -18 -67 -10 -17 -21 -50 -25
-74 -3 -24 -15 -57 -26 -72 -15 -20 -21 -43 -21 -80 0 -36 -6 -59 -17 -72 -12
-13 -20 -43 -24 -98 -4 -56 -11 -84 -24 -99 -15 -16 -19 -44 -25 -152 -4 -96
-11 -142 -23 -165 -15 -29 -17 -76 -17 -445 0 -347 2 -417 15 -435 17 -24 23
-64 29 -192 4 -68 10 -98 22 -112 11 -12 18 -45 23 -101 4 -54 12 -92 24 -108
11 -16 17 -43 17 -77 0 -30 4 -53 11 -53 14 0 39 -63 39 -102 0 -18 9 -46 20
-63 11 -16 20 -44 20 -61 0 -17 9 -43 20 -57 11 -14 23 -46 26 -71 4 -25 10
-46 14 -46 9 0 30 -47 30 -69 0 -10 8 -26 19 -35 10 -9 21 -35 25 -57 3 -22
13 -42 20 -45 8 -3 17 -21 21 -40 3 -19 15 -44 26 -55 10 -10 19 -29 19 -42 0
-12 9 -28 20 -35 11 -7 20 -20 20 -31 0 -10 9 -26 19 -35 11 -10 22 -29 25
-42 4 -13 15 -33 26 -44 11 -11 20 -31 20 -44 0 -15 7 -27 18 -30 17 -6 24
-17 56 -83 9 -18 26 -43 38 -57 36 -38 68 -83 68 -94 0 -5 9 -17 20 -27 11
-10 20 -24 20 -32 0 -7 7 -13 15 -13 9 0 19 -8 22 -17 4 -10 17 -31 30 -48 57
-71 69 -86 85 -102 10 -10 18 -21 18 -25 0 -11 288 -298 299 -298 5 0 11 -9
14 -20 3 -11 12 -20 21 -20 9 0 16 -7 16 -15 0 -9 11 -20 25 -25 14 -5 25 -15
25 -22 0 -7 8 -18 19 -23 40 -22 98 -64 133 -99 20 -20 40 -36 44 -36 3 0 18
-10 33 -22 15 -13 40 -32 56 -43 16 -11 39 -30 52 -42 13 -13 30 -23 38 -23 8
0 23 -8 33 -18 9 -9 30 -23 45 -29 15 -7 27 -17 27 -22 0 -4 13 -11 29 -14 16
-3 35 -13 43 -21 8 -8 30 -22 49 -31 64 -30 94 -48 101 -60 4 -7 20 -16 35
-20 14 -3 38 -15 51 -26 14 -10 33 -19 43 -19 11 0 28 -9 38 -19 11 -11 36
-23 55 -26 19 -4 42 -16 52 -26 9 -10 29 -19 44 -19 15 0 38 -9 52 -19 13 -11
42 -23 63 -27 22 -4 53 -15 70 -26 16 -10 42 -18 56 -18 15 0 38 -9 52 -20 14
-11 40 -20 60 -20 38 0 97 -18 97 -30 0 -4 28 -10 62 -14 34 -3 69 -12 77 -20
9 -8 51 -17 95 -21 44 -4 98 -16 120 -25 23 -10 81 -21 130 -25 52 -3 103 -13
120 -23 28 -14 82 -16 496 -15 397 0 472 3 510 16 25 9 83 19 130 22 47 4 105
15 130 25 25 10 77 21 115 25 39 5 80 14 92 22 12 8 50 17 84 20 41 4 68 12
81 25 12 12 33 18 63 18 30 0 47 5 53 16 5 9 32 20 63 26 30 5 61 16 70 24 9
8 34 18 55 21 22 4 44 13 50 21 5 8 31 16 57 19 31 4 51 12 57 23 5 10 25 21
43 24 19 4 42 15 51 25 10 11 32 22 51 25 18 4 36 13 39 21 3 8 21 17 40 21
20 3 36 10 36 14 0 5 31 24 70 44 38 19 80 44 92 56 12 11 30 20 40 20 10 0
18 5 18 10 0 6 12 16 27 23 15 6 36 20 45 29 10 10 27 18 38 18 10 0 24 9 30
20 6 11 17 20 25 20 8 0 19 9 25 20 6 10 26 27 45 36 19 9 35 20 35 25 0 5 9
9 19 9 11 0 23 9 26 20 3 11 13 20 20 20 8 0 20 8 27 18 7 10 36 34 63 53 28
19 70 53 95 77 25 23 48 42 53 42 4 0 7 7 7 15 0 8 4 15 9 15 12 0 81 69 81
81 0 5 7 9 16 9 9 0 18 9 21 20 3 10 14 22 24 25 10 4 19 13 19 21 0 8 4 14 8
14 9 0 82 65 82 73 0 3 20 26 45 51 25 26 45 51 45 56 0 6 6 10 14 10 7 0 19
13 26 30 7 16 19 35 27 42 8 7 19 22 24 35 5 13 15 23 24 23 8 0 15 7 15 15 0
9 7 18 15 22 9 3 22 21 30 39 8 19 18 34 24 34 5 0 12 13 16 30 4 16 15 32 26
35 10 4 19 15 19 25 0 11 9 24 20 30 11 6 20 20 20 30 0 11 8 28 19 39 10 10
24 35 30 54 7 19 18 38 26 41 8 3 15 14 15 25 0 10 6 21 13 24 7 3 19 23 26
45 8 23 19 43 26 46 7 2 15 20 19 39 4 19 13 37 20 40 8 3 19 23 26 44 7 21
18 43 25 48 7 6 16 26 20 45 4 19 16 41 26 48 12 8 19 25 19 46 0 18 8 44 18
57 11 13 22 42 25 64 4 22 13 45 21 51 9 6 18 31 22 55 4 24 14 53 24 64 10
11 20 42 23 69 3 28 11 55 19 60 9 7 17 37 20 79 3 38 12 75 21 85 8 10 17 49
21 91 4 41 13 88 21 105 15 29 18 49 30 196 4 41 14 88 23 105 15 27 17 77 17
460 0 396 -1 434 -19 475 -12 29 -21 87 -26 166 -6 84 -13 129 -24 146 -9 14
-19 56 -23 94 -3 41 -12 76 -21 87 -10 11 -18 44 -20 85 -3 41 -11 76 -22 92
-10 14 -21 47 -24 74 -3 27 -12 54 -20 60 -8 6 -17 29 -21 51 -4 22 -13 48
-22 57 -8 9 -17 35 -20 59 -3 23 -14 50 -25 61 -10 10 -18 31 -18 48 0 16 -7
33 -15 38 -9 4 -22 32 -30 62 -8 29 -18 56 -23 59 -5 3 -14 21 -20 39 -6 18
-18 40 -27 49 -9 8 -19 29 -22 45 -3 16 -12 32 -19 35 -8 3 -14 11 -14 18 0 6
-11 24 -25 39 -14 15 -25 36 -25 47 0 10 -9 27 -20 36 -11 10 -23 32 -26 50
-3 18 -12 33 -20 33 -7 0 -16 11 -20 24 -3 14 -12 27 -19 30 -7 2 -18 21 -25
40 -6 20 -18 36 -26 36 -8 0 -14 6 -14 14 0 7 -11 25 -25 40 -14 15 -25 33
-25 40 0 7 -9 21 -20 31 -11 10 -20 23 -20 28 0 6 -20 29 -45 53 -25 23 -45
45 -45 48 0 4 -20 28 -45 54 -25 26 -48 55 -51 64 -3 10 -12 18 -20 18 -8 0
-14 7 -14 15 0 8 -20 33 -45 57 -25 24 -45 49 -45 56 0 6 -5 12 -11 12 -6 0
-39 29 -74 65 -34 36 -67 65 -73 65 -6 0 -14 9 -17 20 -3 11 -11 20 -16 20 -6
0 -39 24 -74 54 -34 29 -70 60 -80 67 -9 8 -37 33 -61 57 -25 23 -49 42 -54
42 -5 0 -14 9 -20 19 -5 11 -24 22 -41 26 -17 4 -33 13 -35 20 -6 14 -96 75
-113 75 -6 0 -16 9 -23 20 -7 11 -18 20 -25 20 -7 0 -20 8 -30 19 -10 10 -30
21 -45 25 -15 3 -32 15 -38 26 -6 11 -21 20 -34 20 -13 0 -31 9 -41 20 -10 11
-26 20 -36 20 -11 0 -24 9 -31 20 -7 11 -20 20 -29 20 -9 0 -27 8 -40 19 -13
10 -38 22 -56 25 -17 4 -37 13 -43 21 -6 7 -34 19 -61 25 -28 7 -55 21 -62 31
-7 11 -23 19 -38 19 -14 0 -36 9 -49 20 -13 11 -36 20 -51 20 -31 0 -79 19
-79 31 0 4 -25 11 -56 15 -32 4 -63 14 -72 24 -11 11 -38 19 -71 22 -31 3 -59
12 -65 20 -6 9 -36 17 -69 21 -32 3 -69 13 -82 21 -14 9 -44 16 -67 16 -24 0
-72 7 -108 16 -36 8 -117 21 -180 29 -63 7 -132 20 -152 29 -32 14 -96 16
-455 16 -367 -1 -422 -3 -448 -17z m611 -2449 l49 -47 3 -283 3 -284 472 0
c453 0 473 -1 497 -20 14 -11 32 -20 41 -20 9 0 28 -9 42 -20 14 -11 30 -20
36 -20 17 0 141 -115 141 -131 0 -5 9 -18 20 -29 11 -11 20 -31 20 -44 0 -13
10 -30 23 -38 22 -15 22 -16 25 -336 l3 -321 77 -4 c121 -7 173 -22 205 -59
15 -18 35 -41 45 -51 13 -14 17 -36 17 -85 0 -59 -4 -73 -34 -119 -23 -36 -42
-54 -62 -58 -15 -4 -33 -13 -40 -21 -8 -10 -36 -14 -109 -14 l-99 0 -3 -318
c-3 -312 -3 -318 -25 -346 -13 -16 -23 -37 -23 -47 0 -10 -9 -24 -20 -31 -11
-7 -20 -20 -20 -29 0 -17 -109 -119 -126 -119 -5 0 -15 -9 -22 -20 -7 -11 -21
-20 -31 -20 -10 0 -31 -10 -47 -22 l-29 -23 -1156 0 -1157 0 -31 23 c-16 12
-38 22 -47 22 -21 0 -63 32 -138 106 -66 66 -96 110 -108 163 -5 19 -16 40
-26 47 -15 11 -17 42 -20 313 l-4 301 -78 0 c-65 0 -87 4 -127 25 -59 32 -93
63 -93 86 0 9 -6 22 -14 28 -27 23 -27 69 2 131 15 33 32 60 38 60 6 0 16 11
22 24 9 20 22 26 79 35 37 6 91 12 118 13 l50 3 5 300 c5 293 6 301 28 329 12
16 22 38 22 49 0 22 66 127 80 127 5 0 12 9 15 20 3 11 11 20 17 20 6 0 20 9
32 21 33 33 96 69 130 76 17 4 36 13 43 22 10 14 67 16 482 19 l471 3 0 134 0
134 -271 3 c-267 3 -271 3 -289 26 -10 12 -23 22 -29 22 -7 0 -14 8 -18 18 -3
9 -15 27 -27 40 -14 16 -21 40 -24 85 -4 56 -1 66 22 94 14 17 26 36 26 42 0
6 5 11 11 11 7 0 22 11 35 25 l23 25 414 0 414 0 49 -46z"/>
<path d="M2893 4412 l-43 -47 0 -694 0 -693 28 -44 c15 -23 38 -48 52 -54 17
-7 342 -10 1063 -8 935 3 1040 5 1050 19 7 9 22 21 35 28 l22 12 0 728 0 729
-44 36 -44 36 -1039 -1 -1038 -1 -42 -46z m710 -424 c15 -14 39 -43 55 -64 26
-38 27 -42 30 -209 2 -93 1 -199 -3 -233 -6 -59 -11 -68 -54 -113 -33 -34 -55
-49 -74 -49 -14 0 -29 -4 -32 -10 -3 -5 -19 -10 -35 -10 -16 0 -32 5 -35 10
-3 6 -20 10 -37 10 -23 0 -42 11 -73 43 -39 39 -44 48 -50 109 -4 37 -6 149
-4 250 4 179 5 185 29 214 14 17 41 43 60 58 33 26 40 28 115 24 69 -4 84 -8
108 -30z m1010 -9 c20 -20 37 -45 37 -55 0 -11 8 -31 18 -44 15 -22 17 -50 17
-216 0 -169 -2 -194 -17 -211 -10 -11 -18 -32 -18 -47 0 -19 -7 -29 -25 -36
-14 -5 -25 -16 -25 -24 0 -17 -21 -26 -60 -26 -16 0 -32 -4 -35 -10 -3 -5 -17
-10 -30 -10 -13 0 -27 5 -30 10 -3 6 -19 10 -35 10 -32 0 -100 54 -100 79 0 9
-9 30 -20 46 -18 27 -20 47 -20 220 1 177 2 193 23 236 23 47 69 100 97 112 8
4 53 5 100 4 84 -2 87 -3 123 -38z"/>
</g>
</svg>
